<?xml version="1.0" standalone="no"?>
<!DOCTYPE svg PUBLIC "-//W3C//DTD SVG 20010904//EN"
 "http://www.w3.org/TR/2001/REC-SVG-20010904/DTD/svg10.dtd">
<svg version="1.0" xmlns="http://www.w3.org/2000/svg"
 width="1920.000000pt" height="1080.000000pt" viewBox="0 0 1920.000000 1080.000000"
 preserveAspectRatio="xMidYMid meet">
<metadata>
Created by potrace 1.16, written by Peter Selinger 2001-2019
</metadata>
<g transform="translate(0.000000,1080.000000) scale(0.100000,-0.100000)"
fill="#000000" stroke="none">
<path d="M0 5400 l0 -5400 9600 0 9600 0 0 5400 0 5400 -9600 0 -9600 0 0
-5400z m7950 970 l0 -30 -505 0 -505 0 0 -1365 0 -1365 1480 0 1480 0 0 -30 0
-30 -1500 2 c-1321 3 -1502 5 -1510 18 -6 9 -10 546 -10 1404 0 1279 1 1391
17 1408 15 17 45 18 535 18 l518 0 0 -30z m2261 -736 c41 1 80 5 86 9 19 12
35 -30 30 -74 -2 -22 -7 -42 -10 -46 -3 -3 -40 -5 -82 -4 l-76 1 3 -37 3 -38
70 0 c61 -1 70 -3 73 -20 2 -11 8 -24 12 -29 5 -5 2 -22 -6 -37 -13 -26 -20
-29 -67 -30 -28 -1 -59 -1 -68 0 -12 1 -16 -8 -16 -43 l0 -45 81 -3 81 -3 3
-47 c1 -26 -3 -50 -9 -54 -6 -3 -76 -7 -155 -8 l-144 -1 -1 55 c-2 259 2 445
11 455 7 8 24 10 58 4 26 -4 82 -6 123 -5z m-2361 -60 l0 -54 -80 0 -80 0 0
-45 0 -45 75 0 75 0 0 -55 0 -55 -75 0 -75 0 0 -94 0 -94 -62 -4 c-35 -2 -66
-2 -70 0 -5 2 -8 115 -8 252 0 222 2 249 16 252 9 2 77 2 150 0 l134 -3 0 -55z
m345 -195 l0 -254 -67 0 -68 -1 0 253 0 252 58 4 c31 1 62 2 67 2 6 -1 10 -94
10 -256z m461 251 l74 0 0 -55 0 -55 -80 0 -80 0 0 -45 0 -45 75 0 75 0 0 -55
0 -55 -75 0 -75 0 0 -89 c0 -54 -4 -92 -11 -97 -10 -5 -53 -8 -111 -5 -17 1
-18 20 -18 251 l0 249 63 4 c34 1 68 2 75 0 8 -2 47 -3 88 -3z m421 -236 c1
-132 -2 -246 -6 -253 -5 -8 -32 -13 -71 -14 l-62 -1 0 246 c0 136 2 251 5 255
3 4 34 8 69 8 l63 0 2 -241z m417 224 c20 -29 48 -81 102 -188 29 -58 57 -111
62 -119 6 -8 9 47 9 149 0 183 -1 180 76 180 l47 0 0 -129 c0 -88 4 -131 11
-133 9 -3 9 -9 0 -25 -14 -28 -15 -180 0 -185 6 -2 -1 -16 -16 -31 -21 -21
-31 -24 -45 -17 -10 6 -26 7 -34 4 -9 -3 -36 -3 -59 0 -42 6 -44 8 -86 91 -33
64 -46 83 -59 78 -14 -4 -15 -3 -2 5 12 9 8 22 -25 86 l-40 75 -3 -165 c-3
-187 1 -180 -88 -169 -47 6 -54 9 -47 23 4 9 8 96 9 192 1 96 2 202 3 236 l1
61 86 -2 c67 -1 89 -5 98 -17z m757 -941 c1 -125 0 -320 -1 -367 -1 -49 -14
-68 -34 -51 -9 8 -34 12 -63 9 l-48 -3 1 188 c2 154 -1 187 -12 187 -8 0 -14
5 -14 10 0 6 7 10 15 10 12 0 15 13 15 58 0 32 2 61 4 63 2 2 34 2 70 1 l66
-4 1 -101z m607 93 c30 -11 33 -15 27 -44 -10 -47 -34 -79 -53 -71 -80 32
-167 14 -203 -41 -21 -32 -26 -114 -8 -114 8 0 8 -4 0 -14 -16 -19 2 -56 27
-57 10 0 12 -3 5 -6 -22 -8 14 -35 56 -40 32 -4 41 -1 55 18 29 42 21 58 -31
61 -53 3 -60 14 -48 74 6 33 8 34 50 34 28 0 45 4 45 12 0 9 3 9 12 0 7 -7 36
-12 65 -12 52 0 53 -1 52 -27 -1 -16 0 -74 1 -131 1 -57 -1 -107 -5 -110 -3
-4 -21 -12 -38 -18 -22 -8 -31 -17 -30 -30 1 -18 1 -18 -11 -2 -11 15 -24 17
-79 12 -48 -4 -83 -1 -124 12 -32 10 -61 17 -65 16 -11 -2 -64 82 -76 119 -15
50 -25 110 -24 144 1 42 45 135 78 167 59 54 91 65 194 63 52 -1 110 -8 128
-15z m556 11 c31 -1 37 -4 32 -18 -6 -13 25 -126 54 -198 12 -29 90 -280 90
-288 0 -4 -33 -7 -73 -7 l-73 0 -15 48 -14 47 -75 3 -75 3 -13 -33 c-25 -63
-25 -63 -101 -68 -49 -3 -71 -1 -71 6 0 6 16 60 35 119 19 58 33 110 30 115
-3 5 -1 11 5 15 5 3 10 16 10 29 0 12 5 27 10 32 6 6 23 51 39 100 31 99 40
106 126 99 22 -2 57 -4 79 -4z m590 -172 c27 -93 52 -172 56 -174 3 -2 28 75
55 171 l50 174 93 0 92 0 -2 -252 -3 -253 -60 0 -60 0 0 167 c0 91 -2 164 -5
161 -3 -2 -25 -77 -50 -166 l-45 -162 -62 -3 c-51 -2 -63 0 -71 15 -6 10 -29
88 -53 173 l-44 155 -3 -172 -2 -173 -60 0 -59 0 -3 255 c-2 140 0 256 4 258
4 1 47 1 95 -1 l88 -3 49 -170z m2261 170 c108 -29 135 -150 49 -218 l-28 -22
32 -25 c91 -72 80 -190 -22 -229 -65 -25 -190 -17 -234 14 -65 46 -67 150 -5
208 l35 33 -31 36 c-40 45 -44 118 -8 159 41 48 130 66 212 44z m-6336 -244
c45 -135 81 -250 81 -256 0 -6 -28 -9 -72 -7 l-73 3 -14 48 -15 48 -80 -3 -80
-3 -14 -47 -13 -48 -75 0 c-76 0 -81 3 -64 42 5 13 41 123 80 246 l71 222 94
0 93 0 81 -245z m485 113 c43 -154 58 -200 66 -210 3 -5 28 70 55 165 l50 172
92 3 92 3 3 -208 c2 -114 2 -229 0 -255 l-3 -48 -66 0 -65 0 3 169 c2 93 1
164 -3 157 -4 -7 -16 -46 -27 -87 -11 -41 -30 -110 -43 -154 l-23 -80 -65 -3
-65 -3 -29 98 c-16 54 -35 121 -43 148 -31 104 -32 101 -31 -70 l2 -170 -62
-3 -62 -3 0 256 0 255 93 0 94 0 37 -132z m905 89 c45 -44 57 -83 47 -155 -4
-26 -8 -55 -9 -64 -1 -9 -3 -15 -5 -13 -3 2 -25 -11 -50 -30 -39 -31 -52 -35
-103 -35 l-58 0 -3 -82 -3 -83 -67 -3 -68 -3 -1 118 c-1 118 -1 197 0 326 l1
68 140 -2 139 -3 40 -39z m393 16 c0 -16 2 -104 2 -198 l1 -170 114 1 c94 1
112 -1 98 -11 -12 -8 -17 -26 -17 -59 l0 -46 -164 0 c-91 0 -167 4 -170 9 -3
4 -6 56 -7 115 -1 84 -4 106 -15 106 -8 0 -14 5 -14 10 0 6 7 10 15 10 15 0
18 15 17 70 -4 125 -3 170 3 179 3 6 35 11 71 11 63 0 64 -1 66 -27z m3168
-28 l0 -55 -80 0 -80 0 0 -40 0 -40 75 0 75 0 0 -55 0 -55 -75 0 -75 0 0 -45
0 -45 80 0 80 0 0 -60 0 -61 -147 3 -148 3 -3 253 -2 252 150 0 150 0 0 -55z
m898 -193 c45 -136 82 -251 82 -255 0 -4 -33 -7 -73 -7 l-73 0 -15 48 -14 47
-81 3 -80 3 -13 -51 -13 -50 -68 0 c-38 0 -71 4 -75 9 -3 5 -1 20 4 33 6 13
42 123 81 246 l71 222 93 0 92 0 82 -248z"/>
</g>
</svg>
